<svg width="256" height="256" viewBox="0 0 256 256" fill="none" xmlns="http://www.w3.org/2000/svg">
  <rect width="256" height="256" fill="#F4F3EF"/>
  <circle cx="128" cy="105" r="74" fill="#454545"/>
  <text x="128" y="61" text-anchor="middle" fill="#F4F3EF" font-family="Georgia, serif" font-size="12" font-weight="700">ETAB.</text>
  <text x="128" y="159" text-anchor="middle" fill="#F4F3EF" font-family="Georgia, serif" font-size="13" font-weight="700">1648</text>
  <path d="M128 54c15 0 24 9 24 21 0 11-8 18-24 29-16-11-24-18-24-29 0-12 9-21 24-21Z" stroke="#F4F3EF" stroke-width="5" fill="none"/>
  <path d="M55 103h42m62 0h42M93 75v57m70-57v57M76 89l52 52 52-52M76 121l52-52 52 52" stroke="#F4F3EF" stroke-width="5" stroke-linecap="round" stroke-linejoin="round"/>
</svg>
